<svg width="244" height="191" viewBox="0 0 244 191" fill="none" xmlns="http://www.w3.org/2000/svg">
<path d="M142.183 3.74797L154.042 33.2023L187.301 20.9706L184.13 50.3623L222.484 49.5445L204.767 74.3989L242.376 85.1195L212.81 101.653L243.949 122.28L207.034 127.975L226.962 155.368L188.32 149.358L194.003 179.346L159.515 162.546L150.089 190.565L125.006 165.532L101.905 187.316L90.046 157.861L56.7869 170.093L59.9572 140.701L21.6037 141.519L39.3204 116.665L1.71156 105.944L31.2776 89.4108L0.13893 68.7838L37.0531 63.0888L17.1252 35.6957L55.7677 41.7059L50.0844 11.7171L84.5721 28.5175L93.9987 0.498592L119.081 25.5315L142.183 3.74797Z" fill="#F2E947"/>
</svg>
